<?xml version="1.0" standalone="no"?>
<!DOCTYPE svg PUBLIC "-//W3C//DTD SVG 20010904//EN"
 "http://www.w3.org/TR/2001/REC-SVG-20010904/DTD/svg10.dtd">
<svg version="1.0" xmlns="http://www.w3.org/2000/svg"
 width="1371.000000pt" height="1067.000000pt" viewBox="0 0 1371.000000 1067.000000"
 preserveAspectRatio="xMidYMid meet">

<g transform="translate(0.000000,1067.000000) scale(0.100000,-0.100000)"
fill="#F4EEE0" stroke="none">
<path d="M6551 10030 c-1756 -110 -3302 -1176 -4031 -2780 -203 -447 -334
-927 -396 -1460 -19 -160 -27 -671 -13 -835 34 -417 105 -779 225 -1142 467
-1419 1572 -2534 2988 -3013 1319 -446 2770 -290 3959 426 357 215 637 436
947 748 l145 146 -118 355 c-65 195 -120 355 -122 355 -2 0 -85 -100 -176
-213 -16 -19 -18 -19 -80 34 -231 196 -550 409 -834 558 -55 29 -104 56 -108
60 -5 5 7 89 27 187 36 187 77 441 97 606 l12 98 256 0 c367 0 444 22 567 158
116 129 134 189 134 464 l0 198 456 0 456 0 -7 -67 c-12 -127 -35 -278 -66
-436 -17 -87 -30 -159 -28 -160 2 -1 132 -44 289 -96 157 -52 290 -96 297 -98
15 -6 25 31 68 242 55 273 95 661 95 930 0 153 -17 398 -41 590 -111 903 -475
1740 -1067 2455 -125 151 -446 471 -597 596 -668 552 -1419 896 -2265 1038
-312 53 -749 76 -1069 56z m434 -645 c384 -98 765 -571 1050 -1300 62 -157
139 -384 133 -391 -10 -10 -297 -90 -428 -119 -318 -71 -570 -96 -930 -94
-312 2 -487 19 -770 75 -234 46 -520 128 -520 149 0 21 98 302 152 434 170
420 351 720 573 950 153 159 309 261 453 295 77 19 215 19 287 1z m-1511 -242
c-171 -256 -370 -676 -499 -1055 l-47 -137 -49 24 c-183 93 -669 430 -669 464
0 11 141 124 261 210 236 167 592 361 869 471 148 59 159 60 134 23z m2876
-26 c241 -92 516 -237 765 -402 146 -97 365 -262 365 -275 0 -13 -226 -185
-360 -274 -156 -104 -353 -217 -361 -208 -3 4 -30 77 -59 162 -108 316 -289
706 -435 939 -36 57 -65 105 -65 108 0 6 32 -4 150 -50z m-4417 -1280 c207
-162 452 -320 702 -453 121 -64 126 -68 120 -93 -22 -82 -79 -407 -106 -606
-17 -126 -33 -236 -35 -242 -3 -10 -63 -13 -261 -13 -278 0 -341 -8 -431 -54
-105 -54 -191 -147 -233 -254 -21 -52 -24 -78 -29 -282 l-5 -225 -452 -3 -453
-2 0 30 c0 16 9 98 20 182 97 750 392 1444 865 2036 l106 133 40 -33 c23 -18
91 -72 152 -121z m6118 21 c291 -357 529 -793 684 -1248 103 -305 158 -564
200 -942 l6 -58 -455 0 -456 0 0 198 c0 143 -4 214 -15 255 -47 181 -198 323
-379 356 -33 6 -173 11 -311 11 l-252 0 -12 98 c-20 165 -61 419 -97 606 -20
98 -32 182 -27 187 4 4 53 31 108 59 270 141 599 360 824 549 73 61 75 62 90
43 9 -11 50 -62 92 -114z m-4491 -841 c244 -71 524 -124 845 -159 160 -17 711
-17 875 0 176 18 371 48 540 83 155 32 187 40 378 96 67 20 125 34 128 31 11
-11 104 -569 104 -625 0 -10 -324 -13 -1585 -13 l-1585 0 0 29 c0 54 81 557
97 597 7 19 2 20 203 -39z m-1065 -1190 c24 -24 40 -55 55 -108 12 -41 58
-185 103 -322 l82 -247 106 322 c58 178 109 331 113 340 10 22 66 48 105 48
21 0 42 -10 67 -32 28 -27 40 -51 64 -133 16 -55 62 -201 103 -325 l73 -224
49 154 c147 458 168 513 204 537 40 27 80 29 121 8 33 -17 60 -61 60 -98 0
-21 -92 -317 -268 -857 -62 -191 -69 -206 -101 -227 -83 -56 -162 -6 -201 127
-36 125 -172 534 -179 543 -4 4 -22 -39 -39 -95 -18 -57 -65 -204 -105 -328
-68 -210 -75 -226 -106 -247 -19 -13 -48 -23 -65 -23 -35 0 -90 30 -104 57
-15 27 -332 1029 -332 1048 0 28 38 91 62 102 13 7 40 12 62 12 30 1 45 -6 71
-32z m1790 11 c27 -21 75 -109 75 -138 0 -8 40 -136 88 -285 l88 -270 39 125
c22 69 71 219 110 335 65 194 72 211 104 232 58 39 126 26 160 -31 10 -17 42
-105 70 -196 28 -91 73 -232 100 -315 l48 -150 54 170 c29 94 78 244 109 335
50 150 58 167 89 187 77 52 181 3 181 -85 0 -30 -169 -574 -293 -942 -37 -110
-46 -127 -76 -147 -19 -13 -49 -23 -67 -23 -44 0 -98 48 -117 103 -8 23 -54
165 -103 315 -49 149 -91 272 -94 272 -3 0 -50 -136 -103 -302 -54 -167 -102
-313 -107 -326 -12 -29 -67 -62 -103 -62 -43 0 -85 27 -106 68 -10 20 -89 261
-175 535 -146 461 -157 500 -146 532 25 77 116 110 175 63z m1817 -16 c25 -28
41 -60 57 -118 11 -43 57 -187 100 -318 l79 -240 51 161 c121 381 163 499 186
522 33 34 104 40 142 13 38 -27 43 -40 154 -389 51 -161 95 -293 98 -293 3 0
24 58 45 128 22 70 69 217 106 327 61 183 69 202 100 223 18 12 47 22 65 22
45 0 98 -38 112 -82 11 -34 2 -65 -157 -562 -178 -555 -179 -557 -242 -571
-67 -16 -121 23 -151 107 -9 24 -55 166 -103 316 -49 149 -91 269 -95 265 -4
-5 -51 -145 -104 -313 -54 -168 -102 -313 -107 -323 -5 -10 -24 -27 -41 -37
-57 -35 -123 -21 -157 35 -10 17 -91 259 -180 539 -148 466 -160 510 -150 542
17 50 63 84 115 84 37 0 47 -5 77 -38z m-4442 -1072 c5 -204 8 -230 29 -282
49 -125 154 -226 289 -279 53 -22 76 -23 347 -29 l290 -5 7 -70 c17 -159 111
-718 134 -797 4 -13 -11 -26 -65 -53 -278 -140 -624 -367 -866 -569 l-80 -67
-38 43 c-59 67 -207 263 -275 365 -207 308 -377 656 -491 1003 -87 262 -166
640 -186 883 l-7 87 453 -2 454 -3 5 -225z m4770 -602 c0 -56 -93 -614 -104
-625 -3 -3 -77 15 -164 40 -451 129 -833 182 -1317 182 -365 0 -574 -19 -900
-81 -147 -28 -408 -93 -514 -128 l-70 -23 -11 51 c-30 142 -90 520 -90 573 l0
23 1585 0 c1261 0 1585 -3 1585 -12z m-1210 -1052 c274 -26 529 -75 790 -151
69 -21 133 -39 143 -42 9 -3 17 -9 17 -13 0 -4 -23 -74 -50 -155 -365 -1069
-914 -1661 -1420 -1530 -228 59 -471 263 -677 570 -129 192 -247 419 -351 676
-54 132 -152 413 -152 434 0 6 48 27 108 45 253 78 537 135 807 163 182 19
595 21 785 3z m-2244 -597 c133 -390 315 -773 498 -1051 12 -18 14 -28 7 -28
-49 0 -470 191 -676 307 -186 105 -595 396 -595 423 0 15 197 166 345 265 135
91 365 228 372 222 1 -2 23 -64 49 -138z m3999 18 c182 -113 505 -347 505
-367 0 -9 -179 -150 -290 -227 -159 -110 -335 -214 -512 -303 -179 -89 -464
-208 -474 -197 -3 3 7 25 23 49 165 243 351 637 479 1013 24 71 46 136 49 142
5 14 79 -23 220 -110z"/>
<path d="M10194 4141 c-49 -23 -84 -68 -91 -120 -4 -32 79 -290 486 -1512 270
-811 500 -1489 511 -1507 33 -53 75 -74 144 -69 52 3 63 7 90 38 17 19 103
167 190 329 187 349 197 365 239 390 35 22 100 26 144 9 15 -5 226 -208 468
-449 377 -376 446 -440 480 -449 82 -22 98 -11 348 237 126 125 235 239 243
254 17 32 18 95 3 135 -5 15 -205 224 -443 463 -239 239 -439 445 -445 457
-18 35 -13 114 9 150 25 42 41 51 390 238 162 86 306 167 318 179 70 63 68
178 -2 234 -28 22 -2985 1012 -3021 1012 -11 0 -38 -9 -61 -19z"/>
</g>
</svg>
